<svg width="14" height="19" viewBox="0 0 14 19" fill="none" xmlns="http://www.w3.org/2000/svg">
<path d="M7 4.43994C6.382 4.43994 5.778 4.62294 5.264 4.96694C4.75 5.30994 4.349 5.79794 4.113 6.36894C3.876 6.93994 3.814 7.56794 3.935 8.17494C4.056 8.78094 4.353 9.33794 4.79 9.77494C5.227 10.2119 5.784 10.5089 6.39 10.6299C6.997 10.7499 7.625 10.6889 8.196 10.4519C8.767 10.2159 9.255 9.81494 9.598 9.30094C9.942 8.78694 10.125 8.18294 10.125 7.56494C10.125 6.73594 9.796 5.94094 9.21 5.35494C8.624 4.76894 7.829 4.43994 7 4.43994ZM7 9.43994C6.629 9.43994 6.267 9.32994 5.958 9.12394C5.65 8.91794 5.41 8.62494 5.268 8.28294C5.126 7.93994 5.089 7.56294 5.161 7.19894C5.233 6.83494 5.412 6.50094 5.674 6.23894C5.936 5.97694 6.27 5.79794 6.634 5.72594C6.998 5.65394 7.375 5.69094 7.718 5.83294C8.06 5.97494 8.353 6.21494 8.559 6.52294C8.765 6.83194 8.875 7.19394 8.875 7.56494C8.875 8.06194 8.677 8.53894 8.326 8.89094C7.974 9.24194 7.497 9.43994 7 9.43994ZM7 0.689941C5.177 0.691941 3.43 1.41694 2.141 2.70594C0.852 3.99494 0.127 5.74194 0.125 7.56494C0.125 10.0179 1.259 12.6179 3.406 15.0849C4.371 16.1989 5.457 17.2029 6.645 18.0769C6.75 18.1499 6.875 18.1899 7.003 18.1899C7.131 18.1899 7.257 18.1499 7.362 18.0769C8.547 17.2019 9.631 16.1989 10.594 15.0849C12.738 12.6179 13.875 10.0179 13.875 7.56494C13.873 5.74194 13.148 3.99494 11.859 2.70594C10.57 1.41694 8.823 0.691941 7 0.689941ZM7 16.7839C5.709 15.7679 1.375 12.0379 1.375 7.56494C1.375 6.07294 1.968 4.64194 3.023 3.58794C4.077 2.53294 5.508 1.93994 7 1.93994C8.492 1.93994 9.923 2.53294 10.977 3.58794C12.032 4.64194 12.625 6.07294 12.625 7.56494C12.625 12.0359 8.291 15.7679 7 16.7839Z" fill="white"/>
</svg>
