<svg width="31" height="31" viewBox="0 0 31 31" fill="none" xmlns="http://www.w3.org/2000/svg">
<path d="M15.4 2.38403C12.8969 2.38403 10.45 3.12629 8.36873 4.51695C6.28746 5.90761 4.66531 7.88421 3.7074 10.1968C2.7495 12.5094 2.49887 15.0541 2.98721 17.5091C3.47554 19.9641 4.68091 22.2192 6.45088 23.9892C8.22085 25.7592 10.4759 26.9645 12.931 27.4529C15.386 27.9412 17.9307 27.6906 20.2433 26.7327C22.5558 25.7747 24.5324 24.1526 25.9231 22.0713C27.3138 19.9901 28.056 17.5432 28.056 15.04C28.0523 11.6846 26.7177 8.46764 24.3451 6.09498C21.9724 3.72232 18.7555 2.38774 15.4 2.38403ZM25.244 15.04C25.2443 16.1163 25.0672 17.1853 24.72 18.204L19.97 15.274C19.6919 15.102 19.3803 14.9912 19.056 14.949L16.382 14.588C15.9687 14.5346 15.5486 14.5916 15.1645 14.7532C14.7804 14.9148 14.4459 15.1752 14.195 15.508H13.718L13.401 14.853C13.2466 14.5318 13.0205 14.2502 12.7402 14.03C12.4599 13.8098 12.1327 13.6569 11.784 13.583L11.469 13.517L11.939 12.697H13.625C14.021 12.697 14.41 12.596 14.757 12.404L16.192 11.612C16.3493 11.5241 16.4962 11.4187 16.63 11.298L19.785 8.44703C20.034 8.22173 20.2317 7.94559 20.3647 7.6373C20.4977 7.329 20.5629 6.99573 20.556 6.66003C21.9879 7.54041 23.1704 8.77276 23.9911 10.2397C24.8117 11.7066 25.243 13.3592 25.244 15.04ZM16.895 5.31303L17.622 6.61403L14.785 9.18103L13.504 9.88403H11.666C11.2533 9.88464 10.8481 9.99393 10.491 10.2009C10.1339 10.4079 9.83768 10.7052 9.63202 11.063L9.10602 11.983L8.33102 9.91703L9.49302 7.17203C10.5407 6.38451 11.7352 5.81436 13.0063 5.49511C14.2775 5.17587 15.5996 5.11396 16.895 5.31303ZM5.55602 15.04C5.55602 13.973 5.73002 12.913 6.07202 11.903L6.97902 14.323C7.11595 14.6911 7.34369 15.0186 7.64107 15.275C7.93846 15.5315 8.29584 15.7087 8.68002 15.79L10.97 16.282L11.32 16.997C11.4741 17.3125 11.6968 17.5895 11.9717 17.8079C12.2466 18.0262 12.5669 18.1804 12.909 18.259L12.323 19.562C12.1363 19.9808 12.0766 20.4452 12.1513 20.8975C12.2259 21.3499 12.4317 21.7704 12.743 22.107L12.767 22.132L14.895 24.324L14.791 24.862C12.2919 24.7045 9.94652 23.6016 8.23124 21.7772C6.51595 19.9529 5.55945 17.5441 5.55602 15.04ZM17.703 24.61C17.7698 24.2497 17.7516 23.8788 17.6499 23.5267C17.5481 23.1747 17.3657 22.8512 17.117 22.582L17.092 22.556L15.016 20.418L16.348 17.428L18.575 17.728L23.43 20.713C22.0548 22.6615 20.0203 24.0459 17.703 24.61Z" fill="white"/>
</svg>
