<svg width="25" height="27" viewBox="0 0 25 27" fill="none" xmlns="http://www.w3.org/2000/svg">
<g clip-path="url(#clip0_1_2903)">
<g clip-path="url(#clip1_1_2903)">
<path d="M4.69 7.69043L10.89 12.3404C11.4093 12.7299 12.0409 12.9404 12.69 12.9404C13.3391 12.9404 13.9707 12.7299 14.49 12.3404L20.69 7.69043" stroke="white" stroke-width="2" stroke-linecap="round" stroke-linejoin="round"/>
<path d="M19.69 5.69043H5.69C5.15957 5.69043 4.65086 5.90114 4.27579 6.27622C3.90072 6.65129 3.69 7.16 3.69 7.69043V17.6904C3.69 18.2209 3.90072 18.7296 4.27579 19.1046C4.65086 19.4797 5.15957 19.6904 5.69 19.6904H19.69C20.2204 19.6904 20.7291 19.4797 21.1042 19.1046C21.4793 18.7296 21.69 18.2209 21.69 17.6904V7.69043C21.69 7.16 21.4793 6.65129 21.1042 6.27622C20.7291 5.90114 20.2204 5.69043 19.69 5.69043Z" stroke="white" stroke-width="2" stroke-linecap="round"/>
</g>
</g>
<defs>
<clipPath id="clip0_1_2903">
<rect width="24" height="26" fill="white" transform="translate(0.690002 0.69043)"/>
</clipPath>
<clipPath id="clip1_1_2903">
<rect width="24" height="24" fill="white" transform="translate(0.690002 0.69043)"/>
</clipPath>
</defs>
</svg>
