<svg width="17" height="17" viewBox="0 0 17 17" fill="none" xmlns="http://www.w3.org/2000/svg">
<path d="M9.89601 1.60311C9.91701 1.52411 9.95401 1.44911 10.004 1.38411C10.054 1.31911 10.116 1.26411 10.187 1.22311C10.258 1.18211 10.337 1.15611 10.418 1.14511C10.5 1.13411 10.582 1.14011 10.662 1.16111C11.82 1.46311 12.878 2.06911 13.724 2.91611C14.571 3.76211 15.177 4.81911 15.479 5.97811C15.5 6.05711 15.506 6.14011 15.495 6.22211C15.484 6.30311 15.458 6.38111 15.417 6.45311C15.375 6.52411 15.321 6.58611 15.256 6.63611C15.19 6.68611 15.116 6.72311 15.037 6.74411C14.984 6.75811 14.93 6.76511 14.875 6.76511C14.737 6.76511 14.603 6.71911 14.494 6.63511C14.385 6.55211 14.307 6.43411 14.271 6.30111C14.025 5.35511 13.53 4.49211 12.839 3.80111C12.148 3.11011 11.285 2.61511 10.339 2.36911C10.26 2.34811 10.185 2.31111 10.12 2.26111C10.055 2.21111 10 2.14911 9.95901 2.07811C9.91801 2.00711 9.89101 1.92811 9.88001 1.84711C9.86901 1.76511 9.87501 1.68211 9.89601 1.60311ZM9.71401 4.86911C10.791 5.15611 11.484 5.84811 11.771 6.92611C11.807 7.05911 11.885 7.17611 11.994 7.26011C12.103 7.34411 12.237 7.39011 12.375 7.39011C12.43 7.39011 12.484 7.38311 12.537 7.36911C12.616 7.34811 12.69 7.31111 12.756 7.26111C12.821 7.21111 12.875 7.14911 12.916 7.07811C12.957 7.00611 12.984 6.92811 12.995 6.84711C13.006 6.76511 13 6.68211 12.979 6.60311C12.579 5.10611 11.534 4.06111 10.037 3.66111C9.95701 3.64011 9.87501 3.63411 9.79301 3.64511C9.71201 3.65611 9.63401 3.68311 9.56201 3.72411C9.49101 3.76511 9.42901 3.82011 9.37901 3.88511C9.32901 3.95011 9.29301 4.02411 9.27101 4.10411C9.25001 4.18311 9.24501 4.26611 9.25601 4.34711C9.26601 4.42811 9.29301 4.50711 9.33401 4.57811C9.37501 4.64911 9.43001 4.71111 9.49501 4.76111C9.56001 4.81111 9.63501 4.84811 9.71401 4.86911ZM16.116 12.3181C15.976 13.3771 15.456 14.3481 14.653 15.0521C13.85 15.7551 12.818 16.1421 11.75 16.1401C5.54701 16.1401 0.500008 11.0931 0.500008 4.89011C0.498008 3.82211 0.885008 2.79011 1.58801 1.98711C2.29201 1.18311 3.26301 0.664106 4.32201 0.524106C4.59001 0.492106 4.86101 0.546106 5.09501 0.680106C5.32901 0.814106 5.51301 1.02111 5.62001 1.26811L7.27001 4.95211V4.96111C7.35201 5.15011 7.38601 5.35711 7.36901 5.56311C7.35201 5.76911 7.28401 5.96711 7.17101 6.14011C7.15701 6.16111 7.14201 6.18011 7.12701 6.20011L5.50001 8.12811C6.08501 9.31711 7.32901 10.5501 8.53401 11.1371L10.435 9.51911C10.454 9.50311 10.473 9.48811 10.494 9.47511C10.667 9.36011 10.866 9.28911 11.072 9.27011C11.279 9.25111 11.488 9.28411 11.679 9.36611L11.689 9.37011L15.37 11.0201C15.617 11.1261 15.824 11.3111 15.959 11.5451C16.093 11.7791 16.148 12.0501 16.116 12.3181ZM14.875 12.1621C14.875 12.1621 14.87 12.1621 14.866 12.1621L11.195 10.5171L9.29201 12.1351C9.27401 12.1511 9.25401 12.1651 9.23401 12.1791C9.05501 12.2991 8.84701 12.3701 8.63101 12.3861C8.41501 12.4011 8.19901 12.3611 8.00401 12.2681C6.54101 11.5611 5.08201 10.1131 4.37401 8.66611C4.28101 8.47211 4.23801 8.25711 4.25201 8.04211C4.26601 7.82711 4.33501 7.61911 4.45201 7.43911C4.46601 7.41811 4.48001 7.39811 4.49701 7.37911L6.12501 5.44811L4.48401 1.77711C4.48401 1.77311 4.48401 1.77011 4.48401 1.76711C3.72701 1.86611 3.03101 2.23811 2.52801 2.81211C2.02501 3.38711 1.74801 4.12611 1.75001 4.89011C1.75301 7.54111 2.80701 10.0831 4.68201 11.9581C6.55701 13.8321 9.09901 14.8871 11.75 14.8901C12.514 14.8931 13.252 14.6171 13.827 14.1151C14.402 13.6121 14.775 12.9181 14.875 12.1611V12.1621Z" fill="white"/>
</svg>
