<svg width="31" height="31" viewBox="0 0 31 31" fill="none" xmlns="http://www.w3.org/2000/svg">
<g clip-path="url(#clip0_1_1176)">
<path d="M15.07 18.431C16.2477 17.441 17.0925 16.1127 17.4897 14.6263C17.887 13.1398 17.8174 11.5672 17.2906 10.1217C16.7637 8.67611 15.805 7.42756 14.5445 6.54535C13.2839 5.66313 11.7826 5.18994 10.244 5.18994C8.70541 5.18994 7.20406 5.66313 5.94353 6.54535C4.68301 7.42756 3.7243 8.67611 3.19744 10.1217C2.67057 11.5672 2.60104 13.1398 2.99826 14.6263C3.39549 16.1127 4.24025 17.441 5.41799 18.431C3.57872 19.2625 1.98479 20.5541 0.789995 22.181C0.680735 22.3299 0.601877 22.4989 0.557923 22.6783C0.513969 22.8577 0.50578 23.044 0.533823 23.2265C0.561866 23.4091 0.625593 23.5844 0.721364 23.7423C0.817136 23.9002 0.943076 24.0377 1.092 24.147C1.24091 24.2563 1.4099 24.3351 1.58929 24.3791C1.76869 24.423 1.95498 24.4312 2.13754 24.4032C2.3201 24.3751 2.49535 24.3114 2.65328 24.2156C2.81121 24.1199 2.94874 23.9939 3.058 23.845C3.88513 22.7156 4.96683 21.797 6.21536 21.1638C7.46389 20.5307 8.84409 20.2007 10.244 20.2007C11.6439 20.2007 13.0241 20.5307 14.2726 21.1638C15.5212 21.797 16.6029 22.7156 17.43 23.845C17.537 23.9995 17.674 24.1311 17.8327 24.2318C17.9914 24.3326 18.1687 24.4005 18.3541 24.4315C18.5395 24.4626 18.7293 24.4562 18.9122 24.4127C19.0951 24.3692 19.2674 24.2895 19.419 24.1783C19.5706 24.0671 19.6983 23.9267 19.7947 23.7652C19.8911 23.6038 19.9541 23.4247 19.9801 23.2386C20.0061 23.0524 19.9946 22.8629 19.9461 22.6812C19.8977 22.4996 19.8133 22.3295 19.698 22.181C18.5028 20.5545 16.909 19.263 15.07 18.431ZM5.55599 12.696C5.55599 11.4528 6.04985 10.2605 6.92893 9.38143C7.80801 8.50236 9.00029 8.0085 10.2435 8.0085C11.4867 8.0085 12.679 8.50236 13.5581 9.38143C14.4371 10.2605 14.931 11.4528 14.931 12.696C14.931 13.9392 14.4371 15.1315 13.5581 16.0106C12.679 16.8896 11.4867 17.3835 10.2435 17.3835C9.00029 17.3835 7.80801 16.8896 6.92893 16.0106C6.04985 15.1315 5.55599 13.9392 5.55599 12.696ZM29.71 24.142C29.5611 24.2514 29.3921 24.3304 29.2126 24.3745C29.0332 24.4186 28.8468 24.4269 28.6642 24.3989C28.4815 24.371 28.3061 24.3073 28.1481 24.2116C27.99 24.1158 27.8524 23.9899 27.743 23.841C26.9139 22.7135 25.8318 21.7964 24.5838 21.1633C23.3357 20.5303 21.9565 20.1989 20.557 20.196C20.1841 20.196 19.8265 20.0479 19.5628 19.7842C19.2991 19.5205 19.151 19.1629 19.151 18.79C19.151 18.4171 19.2991 18.0595 19.5628 17.7958C19.8265 17.5321 20.1841 17.384 20.557 17.384C21.2469 17.3829 21.9281 17.2295 22.552 16.9348C23.1758 16.64 23.7268 16.2112 24.1658 15.6788C24.6047 15.1465 24.9207 14.5239 25.0912 13.8553C25.2617 13.1868 25.2825 12.4888 25.1521 11.8113C25.0218 11.1338 24.7434 10.4934 24.337 9.9359C23.9305 9.37838 23.406 8.91747 22.8009 8.58607C22.1957 8.25467 21.5249 8.06097 20.8362 8.01877C20.1476 7.97658 19.4581 8.08695 18.817 8.342C18.4708 8.48057 18.0836 8.47593 17.7408 8.32909C17.398 8.18225 17.1276 7.90524 16.989 7.559C16.8504 7.21276 16.8551 6.82565 17.0019 6.48283C17.1487 6.14002 17.4258 5.86957 17.772 5.731C19.4269 5.06901 21.2634 5.01803 22.9525 5.58717C24.6415 6.15632 26.0727 7.3084 26.9894 8.83692C27.9062 10.3654 28.2486 12.1705 27.9553 13.9286C27.6621 15.6866 26.7523 17.2828 25.389 18.431C27.2283 19.2625 28.8222 20.5541 30.017 22.181C30.2354 22.4819 30.3257 22.8571 30.2681 23.2244C30.2106 23.5917 30.0099 23.9223 29.71 24.142Z" fill="white"/>
</g>
<defs>
<clipPath id="clip0_1_1176">
<rect width="30" height="30" fill="white" transform="translate(0.400024 0.0400391)"/>
</clipPath>
</defs>
</svg>
