<svg width="31" height="31" viewBox="0 0 31 31" fill="none" xmlns="http://www.w3.org/2000/svg">
<g clip-path="url(#clip0_1_1216)">
<path d="M14.811 2.38403C12.9912 2.38594 11.1931 2.7803 9.53949 3.54023C7.88588 4.30015 6.41561 5.40776 5.22894 6.78752C4.04227 8.16728 3.16713 9.78673 2.66318 11.5354C2.15924 13.2841 2.03836 15.1209 2.30877 16.9206C2.57919 18.7203 3.23455 20.4405 4.23016 21.9638C5.22577 23.4872 6.5382 24.778 8.07796 25.748C9.61771 26.7181 11.3486 27.3447 13.1525 27.5851C14.9564 27.8255 16.791 27.674 18.531 27.141C18.751 27.074 18.953 26.953 19.117 26.789L26.567 19.339C26.73 19.176 26.85 18.975 26.917 18.754C27.4962 16.8609 27.6234 14.8583 27.2886 12.9071C26.9538 10.9558 26.1662 9.11026 24.989 7.51848C23.8119 5.9267 22.278 4.63306 20.5104 3.74138C18.7428 2.84969 16.7908 2.38481 14.811 2.38403ZM24.317 17.608L17.38 24.545C15.2898 25.1076 13.0723 24.9643 11.0718 24.1376C9.07124 23.3109 7.39957 21.8469 6.31624 19.9729C5.23291 18.0989 4.79851 15.9196 5.08046 13.7735C5.36241 11.6273 6.34495 9.6342 7.87557 8.10358C9.40618 6.57296 11.3993 5.59042 13.5454 5.30847C15.6916 5.02652 17.8708 5.46092 19.7449 6.54425C21.6189 7.62759 23.0829 9.29925 23.9096 11.2998C24.7363 13.3003 24.8795 15.5178 24.317 17.608ZM8.71702 12.696C8.71702 12.1988 8.91456 11.7218 9.2662 11.3702C9.61783 11.0186 10.0947 10.821 10.592 10.821C11.0893 10.821 11.5662 11.0186 11.9178 11.3702C12.2695 11.7218 12.467 12.1988 12.467 12.696C12.467 13.1933 12.2695 13.6702 11.9178 14.0219C11.5662 14.3735 11.0893 14.571 10.592 14.571C10.0947 14.571 9.61783 14.3735 9.2662 14.0219C8.91456 13.6702 8.71702 13.1933 8.71702 12.696ZM20.905 12.696C20.905 13.1933 20.7075 13.6702 20.3558 14.0219C20.0042 14.3735 19.5273 14.571 19.03 14.571C18.5327 14.571 18.0558 14.3735 17.7042 14.0219C17.3526 13.6702 17.155 13.1933 17.155 12.696C17.155 12.1988 17.3526 11.7218 17.7042 11.3702C18.0558 11.0186 18.5327 10.821 19.03 10.821C19.5273 10.821 20.0042 11.0186 20.3558 11.3702C20.7075 11.7218 20.905 12.1988 20.905 12.696ZM20.716 18.556C19.427 20.789 17.272 22.071 14.811 22.071C12.351 22.071 10.199 20.791 8.90602 18.556C8.81364 18.3962 8.75365 18.2196 8.72948 18.0366C8.70531 17.8535 8.71744 17.6675 8.76517 17.4891C8.8129 17.3107 8.89529 17.1435 9.00765 16.9969C9.12001 16.8504 9.26014 16.7274 9.42002 16.635C9.74292 16.4485 10.1267 16.3978 10.487 16.4942C10.6654 16.5419 10.8326 16.6243 10.9791 16.7367C11.1257 16.849 11.2486 16.9891 11.341 17.149C11.797 17.938 12.854 19.259 14.811 19.259C16.768 19.259 17.825 17.937 18.281 17.149C18.3734 16.9891 18.4964 16.849 18.6429 16.7367C18.7895 16.6243 18.9567 16.5419 19.1351 16.4942C19.3134 16.4465 19.4995 16.4343 19.6826 16.4585C19.8656 16.4827 20.0421 16.5426 20.202 16.635C20.3619 16.7274 20.502 16.8504 20.6144 16.9969C20.7267 17.1435 20.8091 17.3107 20.8569 17.4891C20.9046 17.6675 20.9167 17.8535 20.8926 18.0366C20.8684 18.2196 20.8084 18.3962 20.716 18.556Z" fill="white"/>
</g>
<defs>
<clipPath id="clip0_1_1216">
<rect width="30" height="30" fill="white" transform="translate(0.200012 0.0400391)"/>
</clipPath>
</defs>
</svg>
