<svg width="31" height="31" viewBox="0 0 31 31" fill="none" xmlns="http://www.w3.org/2000/svg">
<g clip-path="url(#clip0_1_1206)">
<path d="M23.131 14.725L17.285 12.571L15.126 6.72003C14.9609 6.27211 14.6625 5.88558 14.2709 5.61256C13.8793 5.33954 13.4134 5.19316 12.936 5.19316C12.4586 5.19316 11.9927 5.33954 11.6012 5.61256C11.2096 5.88558 10.9111 6.27211 10.746 6.72003L8.59201 12.57L2.74101 14.725C2.29309 14.8901 1.90656 15.1886 1.63354 15.5802C1.36052 15.9718 1.21414 16.4377 1.21414 16.915C1.21414 17.3924 1.36052 17.8583 1.63354 18.2499C1.90656 18.6415 2.29309 18.94 2.74101 19.105L8.58701 21.259L10.746 27.11C10.9111 27.558 11.2096 27.9445 11.6012 28.2175C11.9927 28.4905 12.4586 28.6369 12.936 28.6369C13.4134 28.6369 13.8793 28.4905 14.2709 28.2175C14.6625 27.9445 14.9609 27.558 15.126 27.11L17.28 21.264L23.131 19.105C23.5789 18.94 23.9655 18.6415 24.2385 18.2499C24.5115 17.8583 24.6579 17.3924 24.6579 16.915C24.6579 16.4377 24.5115 15.9718 24.2385 15.5802C23.9655 15.1886 23.5789 14.8901 23.131 14.725ZM16.101 18.697C15.7839 18.8135 15.4959 18.9975 15.2569 19.2363C15.0179 19.4751 14.8337 19.763 14.717 20.08L12.937 24.917L11.154 20.079C11.0375 19.7623 10.8535 19.4747 10.6149 19.2361C10.3763 18.9975 10.0887 18.8136 9.77201 18.697L4.93501 16.915L9.77201 15.133C10.0887 15.0165 10.3763 14.8326 10.6149 14.5939C10.8535 14.3553 11.0375 14.0677 11.154 13.751L12.936 8.91303L14.718 13.751C14.8346 14.068 15.0187 14.3558 15.2574 14.5946C15.4962 14.8334 15.7841 15.0175 16.101 15.134L20.938 16.915L16.101 18.697ZM16.217 4.72703C16.217 4.54231 16.2534 4.3594 16.3241 4.18875C16.3949 4.0181 16.4985 3.86306 16.6292 3.73249C16.7598 3.60191 16.915 3.49837 17.0857 3.42777C17.2564 3.35717 17.4393 3.3209 17.624 3.32103H19.03V1.91503C19.03 1.54214 19.1781 1.18452 19.4418 0.920841C19.7055 0.657165 20.0631 0.509033 20.436 0.509033C20.8089 0.509033 21.1665 0.657165 21.4302 0.920841C21.6939 1.18452 21.842 1.54214 21.842 1.91503V3.32103H23.249C23.622 3.32103 23.9798 3.46922 24.2436 3.73299C24.5073 3.99676 24.6555 4.35451 24.6555 4.72753C24.6555 5.10056 24.5073 5.45831 24.2436 5.72208C23.9798 5.98585 23.622 6.13403 23.249 6.13403H21.842V7.54003C21.842 7.91293 21.6939 8.27055 21.4302 8.53423C21.1665 8.7979 20.8089 8.94603 20.436 8.94603C20.0631 8.94603 19.7055 8.7979 19.4418 8.53423C19.1781 8.27055 19.03 7.91293 19.03 7.54003V6.13403H17.624C17.4392 6.13416 17.2562 6.09786 17.0854 6.0272C16.9147 5.95654 16.7595 5.8529 16.6288 5.72223C16.4981 5.59155 16.3945 5.43639 16.3238 5.26562C16.2532 5.09486 16.2169 4.91184 16.217 4.72703ZM29.342 10.352C29.3421 10.5368 29.3059 10.7197 29.2353 10.8904C29.1647 11.0611 29.0611 11.2162 28.9306 11.3469C28.8 11.4775 28.6449 11.5812 28.4743 11.6519C28.3036 11.7226 28.1207 11.759 27.936 11.759H27.467V12.228C27.467 12.6009 27.3189 12.9585 27.0552 13.2222C26.7915 13.4859 26.4339 13.634 26.061 13.634C25.6881 13.634 25.3305 13.4859 25.0668 13.2222C24.8031 12.9585 24.655 12.6009 24.655 12.228V11.758H24.186C23.8131 11.758 23.4555 11.6099 23.1918 11.3462C22.9281 11.0826 22.78 10.7249 22.78 10.352C22.78 9.97914 22.9281 9.62152 23.1918 9.35784C23.4555 9.09417 23.8131 8.94603 24.186 8.94603H24.655V8.47703C24.655 8.10414 24.8031 7.74652 25.0668 7.48284C25.3305 7.21916 25.6881 7.07103 26.061 7.07103C26.4339 7.07103 26.7915 7.21916 27.0552 7.48284C27.3189 7.74652 27.467 8.10414 27.467 8.47703V8.94703H27.937C28.3096 8.9473 28.6668 9.09541 28.9302 9.35884C29.1936 9.62227 29.3417 9.97949 29.342 10.352Z" fill="white"/>
</g>
<defs>
<clipPath id="clip0_1_1206">
<rect width="31" height="30" fill="white" transform="translate(-0.299988 0.0400391)"/>
</clipPath>
</defs>
</svg>
